<?xml version="1.0" encoding="utf-8"?>
<svg viewBox="130.549 74.384 191.537 120.325" xmlns="http://www.w3.org/2000/svg">
  <defs>
    <radialGradient gradientUnits="userSpaceOnUse" cx="163.2" cy="115.732" r="38.803" id="gradient-2" gradientTransform="matrix(1, 0, 0, 1, 6.152117, 0)">
      <stop offset="0" style="stop-color: rgba(48, 185, 209, 1)"/>
      <stop offset="1" style="stop-color: rgba(28, 112, 127, 1)"/>
    </radialGradient>
    <radialGradient gradientUnits="userSpaceOnUse" cx="280.833" cy="116.683" r="41.253" id="gradient-1">
      <stop offset="0" style="stop-color: rgba(48, 166, 209, 1)"/>
      <stop offset="1" style="stop-color: rgba(28, 101, 127, 1)"/>
    </radialGradient>
    <radialGradient gradientUnits="userSpaceOnUse" cx="225.719" cy="159.754" r="34.955" id="gradient-0" gradientTransform="matrix(1, 0, 0, 1, 0.182709, 0)">
      <stop offset="0" style="stop-color: rgba(206, 196, 196, 1)"/>
      <stop offset="1" style="stop-color: rgba(160, 140, 140, 1)"/>
    </radialGradient>
  </defs>
  <path d="M 138.359 74.423 C 142.377 74.142 151.874 75.368 159.226 79.066 C 168.487 83.724 181.048 94.569 188.897 103.273 C 196.003 111.154 202.143 120.311 205.2 128.476 C 207.83 135.503 208.72 144.411 207.808 149.036 C 207.197 152.137 205.824 154.024 203.57 155.336 C 200.867 156.91 196.461 157.582 191.831 156.662 C 185.545 155.414 175.928 150.109 169.009 145.388 C 162.135 140.7 156.146 135.221 150.423 128.476 C 144.215 121.158 136.617 110.928 133.467 102.61 C 130.789 95.537 130.051 86.519 130.86 82.05 C 131.374 79.204 133.066 77.699 134.446 76.413 C 135.618 75.322 136.229 74.572 138.359 74.423 Z" style="stroke: rgb(0, 0, 0); stroke-opacity: 0.71; fill: url(#gradient-2);"/>
  <path d="M 305.672 75.962 C 310.394 75.557 316.421 76.019 319.122 78.72 C 321.823 81.422 322.48 87.158 321.882 92.168 C 321.15 98.28 317.335 105.881 312.913 112.858 C 307.81 120.913 299.581 130.417 291.877 137.341 C 284.468 144.002 275.607 150.622 267.735 153.894 C 260.936 156.719 252.178 158.061 247.732 157.341 C 244.831 156.873 243.2 155.658 241.87 153.548 C 240.223 150.936 239.077 146.544 239.8 141.824 C 240.797 135.32 245.651 125.453 250.836 117.687 C 256.507 109.192 266.283 99.373 273.253 93.203 C 278.867 88.234 283.611 85.066 289.117 82.169 C 294.432 79.372 300.446 76.409 305.672 75.962 Z" style="stroke: rgb(0, 0, 0); stroke-opacity: 0.71; fill: url(#gradient-1);"/>
  <ellipse cx="225.902" cy="159.754" rx="34.955" ry="34.955" style="stroke: rgb(0, 0, 0); stroke-opacity: 0.71; fill: url(#gradient-0);"/>
  <path d="M 229.329 169.211 C 229.348 169.191 229.387 169.191 229.446 169.191 L 229.544 169.191 C 229.603 169.191 229.623 169.211 229.603 169.25 C 229.544 169.309 229.485 169.328 229.387 169.27 Z M 231.602 163.37 C 231.387 163.233 231.818 163.233 231.602 163.37 Z M 224.193 158.352 L 224.821 158.431 C 225.271 158.49 225.565 158.607 225.742 158.823 C 226.036 159.136 226.369 159.332 226.781 159.43 C 227.192 159.528 227.917 159.568 228.976 159.568 L 230.897 159.568 C 230.838 159.94 230.74 160.469 230.603 161.175 C 230.465 161.9 230.367 162.429 230.309 162.782 L 230.563 162.958 C 230.897 163.194 230.916 163.37 230.505 163.37 L 230.171 163.37 C 229.819 165.036 229.505 166.643 229.231 168.172 L 228.78 168.211 C 228.486 168.231 228.349 168.29 228.349 168.427 C 228.349 168.525 228.427 168.682 228.584 168.878 L 228.819 169.191 L 228.545 169.191 C 228.349 169.191 228.211 169.054 228.153 168.799 C 228.094 168.564 227.957 168.427 227.741 168.368 C 227.525 168.309 227.016 168.27 226.251 168.25 L 225.173 168.231 L 224.703 167.094 C 224.409 166.33 224.154 165.918 223.958 165.84 C 223.821 165.8 223.488 165.781 222.959 165.781 C 222.194 165.781 221.802 165.82 221.802 165.879 C 221.802 165.957 221.939 166.094 222.194 166.271 C 222.449 166.467 222.645 166.584 222.782 166.624 C 222.919 166.643 223.037 166.761 223.135 166.957 C 223.233 167.172 223.429 167.76 223.762 168.721 L 224.448 170.74 L 225.036 170.72 C 225.291 170.72 226.251 170.661 227.957 170.563 C 229.662 170.465 230.524 170.406 230.563 170.387 C 230.622 170.328 230.701 170.014 230.779 169.485 C 230.779 169.407 230.799 169.328 230.857 169.25 C 230.995 169.034 231.289 168.133 231.759 166.526 C 232.21 164.938 232.484 163.919 232.563 163.429 C 232.661 162.684 232.817 162.135 233.033 161.802 C 233.209 161.547 233.347 161.214 233.445 160.783 C 233.503 160.567 233.601 160.058 233.621 159.979 C 233.641 159.842 233.817 159.764 234.15 159.764 C 234.366 159.764 234.562 159.764 234.738 159.783 C 234.915 159.803 235.13 159.803 235.385 159.803 C 235.679 159.803 235.855 159.724 235.934 159.587 C 236.012 159.411 236.169 159.332 236.404 159.332 C 236.718 159.332 236.757 159.274 236.835 158.784 C 236.855 158.49 236.875 158.196 236.855 158.196 C 236.835 158.176 234.993 158.117 231.308 157.98 C 227.623 157.843 225.546 157.784 225.075 157.784 C 224.742 157.804 224.527 157.902 224.389 158.078 Z" transform="matrix(3.610113, 0, 0, 3.043191, -602.565796, -338.54126)" style="fill: rgb(51, 51, 51); white-space: pre;"/>
</svg>